Coordinates
version=1
nRows=20
nColumns=38
inDegrees=no

Units are S.I. units (second, meters, Newtons, ...)
If the header above contains a line with 'inDegrees', this indicates whether rotational values are in degrees (yes) or radians (no).

endheader
time	pelvis_tilt	pelvis_list	pelvis_rotation	pelvis_tx	pelvis_ty	pelvis_tz	hip_flexion_r	hip_adduction_r	hip_rotation_r	knee_angle_r	ankle_angle_r	subtalar_angle_r	mtp_angle_r	hip_flexion_l	hip_adduction_l	hip_rotation_l	knee_angle_l	ankle_angle_l	subtalar_angle_l	mtp_angle_l	lumbar_extension	lumbar_bending	lumbar_rotation	arm_flex_r	arm_add_r	arm_rot_r	elbow_flex_r	pro_sup_r	wrist_flex_r	wrist_dev_r	arm_flex_l	arm_add_l	arm_rot_l	elbow_flex_l	pro_sup_l	wrist_flex_l	wrist_dev_l
5	0.611577	1.45513	1.03281	0.635993	-0.194226	0.770981	0.921426	-0.0463312	-0.0800417	1.34446	-0.112007	0	0	0.9297	-0.294668	-0.269355	1.43385	-0.139359	0	0	-0.698519	0.144515	-0.110108	0.731698	-0.221522	0.866262	0.274178	0.93253	0	0	0.491157	-0.454923	0.702068	0.582986	0.745097	0	0
5.01	0.634822	1.45898	1.00996	0.635784	-0.193518	0.773318	0.910866	-0.0460822	-0.0811522	1.33707	-0.112132	0	0	0.919276	-0.294008	-0.270743	1.42703	-0.140918	0	0	-0.696355	0.145003	-0.113357	0.732212	-0.219515	0.877466	0.271588	0.943372	0	0	0.486685	-0.456848	0.706439	0.584035	0.752929	0	0
5.02	0.65178	1.46341	0.994188	0.635751	-0.192982	0.775666	0.900709	-0.0466996	-0.081408	1.3303	-0.111298	0	0	0.909067	-0.291858	-0.271753	1.41966	-0.14276	0	0	-0.693066	0.144774	-0.117839	0.732789	-0.217247	0.889697	0.268769	0.955429	0	0	0.482737	-0.459524	0.711216	0.584244	0.763713	0	0
5.03	0.688245	1.46518	0.95833	0.636427	-0.191943	0.77805	0.883613	-0.00608875	-0.0852451	1.27678	-0.107796	0	0	0.900264	-0.295305	-0.271734	1.41323	-0.145044	0	0	-0.688444	0.145539	-0.11976	0.732434	-0.214962	0.906487	0.265384	0.972447	0	0	0.477515	-0.462919	0.714659	0.584451	0.780358	0	0
5.04	0.687593	1.46806	0.95928	0.635361	-0.19115	0.780575	0.881796	-0.0460625	-0.0833151	1.31373	-0.116241	0	0	0.890396	-0.290273	-0.274292	1.4043	-0.146099	0	0	-0.682414	0.145483	-0.124732	0.733251	-0.215599	0.918624	0.264047	0.984532	0	0	0.471677	-0.462541	0.713992	0.583513	0.793183	0	0
5.05	0.724245	1.46734	0.922205	0.635838	-0.189615	0.783125	0.865281	-0.00464576	-0.0875194	1.25842	-0.113609	0	0	0.882307	-0.295834	-0.275407	1.39753	-0.148251	0	0	-0.67575	0.146647	-0.125015	0.730801	-0.214737	0.927558	0.262863	0.993604	0	0	0.464037	-0.463764	0.709795	0.58349	0.808917	0	0
5.06	0.725703	1.47229	0.922532	0.634912	-0.188881	0.785998	0.860961	-0.0447772	-0.086029	1.29174	-0.127426	0	0	0.870231	-0.288295	-0.276711	1.38657	-0.150683	0	0	-0.670728	0.145871	-0.132024	0.730941	-0.213907	0.933962	0.261885	0.999501	0	0	0.45725	-0.464238	0.703259	0.583029	0.826514	0	0
5.07	0.742332	1.47369	0.906863	0.634634	-0.187595	0.788851	0.851279	-0.0450038	-0.0878103	1.2836	-0.129172	0	0	0.860634	-0.287	-0.27766	1.3772	-0.152407	0	0	-0.663746	0.14605	-0.135345	0.72829	-0.213745	0.935866	0.262542	1.002	0	0	0.449905	-0.464761	0.698539	0.58246	0.839996	0	0
5.08	0.769686	1.47535	0.880781	0.634397	-0.186158	0.791956	0.840521	-0.0434236	-0.089944	1.2721	-0.130932	0	0	0.849723	-0.286246	-0.278334	1.3672	-0.154216	0	0	-0.657356	0.146728	-0.138573	0.725462	-0.213747	0.937884	0.263842	1.00496	0	0	0.442163	-0.465356	0.69201	0.582216	0.857437	0	0
5.09	0.817943	1.4769	0.834503	0.634076	-0.184488	0.795526	0.825352	-0.0415253	-0.0941109	1.2578	-0.131222	0	0	0.837037	-0.286452	-0.278342	1.35627	-0.155832	0	0	-0.652636	0.148966	-0.141253	0.722762	-0.21447	0.938825	0.265929	1.00725	0	0	0.433835	-0.465103	0.680154	0.582526	0.880711	0	0
5.1	0.955804	1.47775	0.698017	0.633714	-0.182989	0.800561	0.797646	-0.0320738	-0.0997072	1.23256	-0.133378	0	0	0.817989	-0.292517	-0.27587	1.34272	-0.159443	0	0	-0.655979	0.155974	-0.137622	0.721873	-0.217567	0.938443	0.268972	1.00807	0	0	0.435826	-0.468048	0.701087	0.582033	0.871777	0	0
5.11	1.00191	1.47941	0.653522	0.633403	-0.181269	0.804102	0.781798	-0.0309695	-0.102697	1.21838	-0.134927	0	0	0.804366	-0.292328	-0.277161	1.33143	-0.162134	0	0	-0.649116	0.156817	-0.139927	0.717735	-0.219167	0.938383	0.271695	1.01006	0	0	0.432392	-0.471651	0.714778	0.582341	0.872466	0	0
5.12	1.07725	1.48299	0.578806	0.632816	-0.18031	0.807581	0.764745	-0.0296788	-0.10382	1.20468	-0.137521	0	0	0.788487	-0.290952	-0.277792	1.321	-0.164587	0	0	-0.644143	0.158156	-0.143397	0.716618	-0.219324	0.941111	0.272882	1.01394	0	0	0.428023	-0.476199	0.725309	0.584611	0.874449	0	0
5.13	1.14794	1.48651	0.508565	0.632507	-0.179069	0.811314	0.748057	-0.0287778	-0.104474	1.19221	-0.140518	0	0	0.771767	-0.289358	-0.279648	1.3089	-0.167234	0	0	-0.639209	0.157885	-0.146552	0.714568	-0.219427	0.94441	0.274432	1.01872	0	0	0.422777	-0.481216	0.732879	0.588214	0.878439	0	0
5.14	1.22133	1.48962	0.435466	0.632201	-0.17772	0.815161	0.731666	-0.0283667	-0.105019	1.18156	-0.143753	0	0	0.754583	-0.287595	-0.281775	1.29595	-0.16987	0	0	-0.634118	0.157381	-0.149437	0.712199	-0.219958	0.947886	0.276702	1.02405	0	0	0.416473	-0.485697	0.73634	0.592865	0.881432	0	0
5.15	1.28349	1.49189	0.373567	0.631883	-0.176219	0.818964	0.71601	-0.0280685	-0.105387	1.1704	-0.146427	0	0	0.738445	-0.285712	-0.284129	1.28268	-0.172135	0	0	-0.627439	0.156728	-0.152236	0.70894	-0.220796	0.950201	0.279364	1.02825	0	0	0.409217	-0.489231	0.73625	0.597454	0.882541	0	0
5.16	1.34596	1.49353	0.311421	0.631549	-0.174597	0.822848	0.699577	-0.0274064	-0.105861	1.15715	-0.149104	0	0	0.72234	-0.284014	-0.286434	1.26897	-0.174677	0	0	-0.620595	0.15619	-0.154885	0.705146	-0.221943	0.951505	0.282276	1.03139	0	0	0.401339	-0.492535	0.734068	0.602551	0.881925	0	0
5.17	1.4003	1.49482	0.257364	0.631265	-0.172873	0.826688	0.683935	-0.0254999	-0.106043	1.14021	-0.152376	0	0	0.706903	-0.281898	-0.288218	1.25501	-0.177415	0	0	-0.612874	0.155339	-0.157437	0.700733	-0.223241	0.952216	0.285289	1.03383	0	0	0.392767	-0.495841	0.731077	0.608137	0.881063	0	0
5.18	1.44417	1.49579	0.213829	0.630937	-0.171059	0.83052	0.668888	-0.0247415	-0.106942	1.12456	-0.155922	0	0	0.692208	-0.278821	-0.288974	1.24043	-0.18002	0	0	-0.604024	0.154452	-0.159947	0.695825	-0.224799	0.952823	0.288366	1.03593	0	0	0.383709	-0.498707	0.727717	0.61346	0.88135	0	0
5.19	1.54104	1.49694	0.117465	0.630634	-0.169236	0.834797	0.648986	-0.0237396	-0.107842	1.1083	-0.16775	0	0	0.672664	-0.276417	-0.290305	1.22474	-0.185818	0	0	-0.59977	0.154549	-0.165715	0.700298	-0.230147	1.02228	0.2958	0.970729	0	0	0.367433	-0.502629	0.704012	0.624104	0.895981	0	0
